<svg width="25" height="22" viewBox="0 0 25 22" fill="none" xmlns="http://www.w3.org/2000/svg">
<rect width="25" height="22" fill="white"/>
<rect x="3" y="2" width="8.18182" height="9.35" fill="#283A9C"/>
<path d="M13.2273 6.25L19.9587 15.8125H6.49589L13.2273 6.25Z" fill="#283A9C"/>
<path d="M12.4091 2L13.6031 5.81768L17.467 5.81768L14.341 8.17714L15.535 11.9948L12.4091 9.63536L9.28314 11.9948L10.4772 8.17714L7.3512 5.81768L11.2151 5.81768L12.4091 2Z" fill="#283A9C"/>
<path d="M3.2358 17.5455L3.66761 18.7699H3.68466L4.11648 17.5455H4.30114L3.76705 19H3.58523L3.05114 17.5455H3.2358ZM4.50497 19V17.9091H4.67259V19H4.50497ZM4.5902 17.7273C4.55753 17.7273 4.52936 17.7161 4.50568 17.6939C4.48248 17.6716 4.47088 17.6449 4.47088 17.6136C4.47088 17.5824 4.48248 17.5556 4.50568 17.5334C4.52936 17.5111 4.55753 17.5 4.5902 17.5C4.62287 17.5 4.6508 17.5111 4.67401 17.5334C4.69768 17.5556 4.70952 17.5824 4.70952 17.6136C4.70952 17.6449 4.69768 17.6716 4.67401 17.6939C4.6508 17.7161 4.62287 17.7273 4.5902 17.7273ZM5.39151 19.0227C5.3006 19.0227 5.22035 18.9998 5.15075 18.9538C5.08114 18.9074 5.02669 18.8421 4.98739 18.7578C4.94809 18.6731 4.92844 18.5729 4.92844 18.4574C4.92844 18.3428 4.94809 18.2434 4.98739 18.1591C5.02669 18.0748 5.08138 18.0097 5.15146 17.9638C5.22153 17.9179 5.3025 17.8949 5.39435 17.8949C5.46538 17.8949 5.52148 17.9067 5.56268 17.9304C5.60434 17.9536 5.63607 17.9801 5.65785 18.0099C5.6801 18.0393 5.69738 18.0634 5.70969 18.0824H5.7239V17.5455H5.89151V19H5.72958V18.8324H5.70969C5.69738 18.8523 5.67987 18.8774 5.65714 18.9077C5.63441 18.9375 5.60198 18.9643 5.55984 18.9879C5.5177 19.0111 5.46159 19.0227 5.39151 19.0227ZM5.41424 18.8722C5.48147 18.8722 5.53829 18.8546 5.58469 18.8196C5.6311 18.7841 5.66637 18.7351 5.69052 18.6726C5.71467 18.6096 5.72674 18.5369 5.72674 18.4545C5.72674 18.3731 5.7149 18.3018 5.69123 18.2408C5.66755 18.1792 5.63252 18.1314 5.58612 18.0973C5.53971 18.0627 5.48242 18.0455 5.41424 18.0455C5.34322 18.0455 5.28403 18.0637 5.23668 18.1001C5.18981 18.1361 5.15453 18.1851 5.13086 18.2472C5.10766 18.3087 5.09606 18.3778 5.09606 18.4545C5.09606 18.5322 5.1079 18.6027 5.13157 18.6662C5.15572 18.7292 5.19123 18.7794 5.2381 18.8168C5.28545 18.8537 5.34416 18.8722 5.41424 18.8722ZM6.67915 19.0227C6.57404 19.0227 6.48337 18.9995 6.40714 18.9531C6.33138 18.9062 6.2729 18.8409 6.23171 18.7571C6.19099 18.6728 6.17063 18.5748 6.17063 18.4631C6.17063 18.3513 6.19099 18.2528 6.23171 18.1676C6.2729 18.0819 6.3302 18.0152 6.40359 17.9673C6.47745 17.919 6.56362 17.8949 6.66211 17.8949C6.71893 17.8949 6.77504 17.9044 6.83043 17.9233C6.88583 17.9422 6.93626 17.973 6.98171 18.0156C7.02717 18.0578 7.06339 18.1136 7.09038 18.1832C7.11737 18.2528 7.13086 18.3385 7.13086 18.4403V18.5114H6.28995V18.3665H6.9604C6.9604 18.3049 6.94809 18.25 6.92347 18.2017C6.89933 18.1534 6.86476 18.1153 6.81978 18.0874C6.77527 18.0594 6.72272 18.0455 6.66211 18.0455C6.59535 18.0455 6.53758 18.062 6.48881 18.0952C6.44052 18.1278 6.40335 18.1705 6.37731 18.223C6.35127 18.2756 6.33825 18.3319 6.33825 18.392V18.4886C6.33825 18.571 6.35245 18.6409 6.38086 18.6982C6.40974 18.755 6.44975 18.7983 6.50089 18.8281C6.55202 18.8575 6.61145 18.8722 6.67915 18.8722C6.72319 18.8722 6.76296 18.866 6.79847 18.8537C6.83446 18.8409 6.86547 18.822 6.89151 18.7969C6.91755 18.7713 6.93768 18.7396 6.95188 18.7017L7.11381 18.7472C7.09677 18.8021 7.06812 18.8504 7.02788 18.892C6.98763 18.9332 6.93791 18.9654 6.87873 18.9886C6.81954 19.0114 6.75302 19.0227 6.67915 19.0227ZM7.82901 19.0227C7.73053 19.0227 7.64412 18.9993 7.56978 18.9524C7.49592 18.9055 7.43815 18.84 7.39648 18.7557C7.35529 18.6714 7.33469 18.5729 7.33469 18.4602C7.33469 18.3466 7.35529 18.2474 7.39648 18.1626C7.43815 18.0779 7.49592 18.0121 7.56978 17.9652C7.64412 17.9183 7.73053 17.8949 7.82901 17.8949C7.9275 17.8949 8.01367 17.9183 8.08754 17.9652C8.16187 18.0121 8.21964 18.0779 8.26083 18.1626C8.3025 18.2474 8.32333 18.3466 8.32333 18.4602C8.32333 18.5729 8.3025 18.6714 8.26083 18.7557C8.21964 18.84 8.16187 18.9055 8.08754 18.9524C8.01367 18.9993 7.9275 19.0227 7.82901 19.0227ZM7.82901 18.8722C7.90382 18.8722 7.96538 18.853 8.01367 18.8146C8.06197 18.7763 8.09772 18.7259 8.12092 18.6634C8.14412 18.6009 8.15572 18.5331 8.15572 18.4602C8.15572 18.3873 8.14412 18.3194 8.12092 18.2564C8.09772 18.1934 8.06197 18.1425 8.01367 18.1037C7.96538 18.0649 7.90382 18.0455 7.82901 18.0455C7.7542 18.0455 7.69265 18.0649 7.64435 18.1037C7.59606 18.1425 7.56031 18.1934 7.53711 18.2564C7.51391 18.3194 7.50231 18.3873 7.50231 18.4602C7.50231 18.5331 7.51391 18.6009 7.53711 18.6634C7.56031 18.7259 7.59606 18.7763 7.64435 18.8146C7.69265 18.853 7.7542 18.8722 7.82901 18.8722ZM9.20419 18.2983V18.4545H8.56783V18.2983H9.20419ZM10.5162 18C10.5005 17.9522 10.4799 17.9093 10.4544 17.8714C10.4293 17.8331 10.3992 17.8004 10.3642 17.7734C10.3296 17.7464 10.2903 17.7259 10.2463 17.7116C10.2022 17.6974 10.1539 17.6903 10.1014 17.6903C10.0152 17.6903 9.93685 17.7126 9.8663 17.7571C9.79575 17.8016 9.73964 17.8672 9.69798 17.9538C9.65631 18.0405 9.63548 18.1468 9.63548 18.2727C9.63548 18.3987 9.65655 18.505 9.69869 18.5916C9.74083 18.6783 9.79788 18.7438 9.86985 18.7884C9.94182 18.8329 10.0228 18.8551 10.1127 18.8551C10.1961 18.8551 10.2695 18.8374 10.3329 18.8018C10.3968 18.7659 10.4466 18.7152 10.4821 18.6499C10.5181 18.584 10.536 18.5066 10.536 18.4176L10.59 18.429H10.1525V18.2727H10.7065V18.429C10.7065 18.5488 10.6809 18.6529 10.6298 18.7415C10.5791 18.83 10.5091 18.8987 10.4196 18.9474C10.3306 18.9957 10.2283 19.0199 10.1127 19.0199C9.98396 19.0199 9.8708 18.9896 9.77326 18.929C9.6762 18.8684 9.60044 18.7822 9.54599 18.6705C9.49201 18.5587 9.46502 18.4261 9.46502 18.2727C9.46502 18.1577 9.48041 18.0542 9.51119 17.9624C9.54244 17.87 9.58647 17.7914 9.64329 17.7266C9.70011 17.6617 9.76734 17.612 9.84499 17.5774C9.92264 17.5429 10.0081 17.5256 10.1014 17.5256C10.1781 17.5256 10.2496 17.5372 10.3159 17.5604C10.3826 17.5831 10.4421 17.6155 10.4941 17.6577C10.5467 17.6993 10.5905 17.7493 10.6255 17.8075C10.6606 17.8653 10.6847 17.9295 10.698 18H10.5162ZM11.3065 19.0256C11.2373 19.0256 11.1746 19.0125 11.1183 18.9865C11.0619 18.96 11.0172 18.9219 10.984 18.8722C10.9509 18.822 10.9343 18.7614 10.9343 18.6903C10.9343 18.6278 10.9466 18.5772 10.9712 18.5384C10.9959 18.4991 11.0288 18.4683 11.07 18.446C11.1112 18.4238 11.1566 18.4072 11.2063 18.3963C11.2565 18.3849 11.3069 18.3759 11.3576 18.3693C11.4239 18.3608 11.4776 18.3544 11.5188 18.3501C11.5605 18.3454 11.5908 18.3376 11.6097 18.3267C11.6291 18.3158 11.6388 18.2969 11.6388 18.2699V18.2642C11.6388 18.1941 11.6197 18.1397 11.5813 18.1009C11.5434 18.062 11.4859 18.0426 11.4087 18.0426C11.3287 18.0426 11.266 18.0601 11.2205 18.0952C11.1751 18.1302 11.1431 18.1676 11.1246 18.2074L10.9656 18.1506C10.994 18.0843 11.0318 18.0327 11.0792 17.9957C11.127 17.9583 11.1791 17.9323 11.2354 17.9176C11.2923 17.9025 11.3481 17.8949 11.4031 17.8949C11.4381 17.8949 11.4783 17.8991 11.5238 17.9077C11.5697 17.9157 11.614 17.9325 11.6566 17.9581C11.6997 17.9837 11.7354 18.0223 11.7638 18.0739C11.7923 18.1255 11.8065 18.1946 11.8065 18.2812V19H11.6388V18.8523H11.6303C11.619 18.8759 11.6 18.9013 11.5735 18.9283C11.547 18.9553 11.5117 18.9782 11.4677 18.9972C11.4237 19.0161 11.3699 19.0256 11.3065 19.0256ZM11.332 18.875C11.3983 18.875 11.4542 18.862 11.4996 18.8359C11.5456 18.8099 11.5801 18.7763 11.6033 18.7351C11.627 18.6939 11.6388 18.6506 11.6388 18.6051V18.4517C11.6317 18.4602 11.6161 18.468 11.592 18.4751C11.5683 18.4818 11.5408 18.4877 11.5096 18.4929C11.4788 18.4976 11.4487 18.5019 11.4194 18.5057C11.3905 18.509 11.3671 18.5118 11.3491 18.5142C11.3055 18.5199 11.2648 18.5291 11.2269 18.5419C11.1895 18.5542 11.1592 18.5729 11.136 18.598C11.1133 18.6226 11.1019 18.6562 11.1019 18.6989C11.1019 18.7571 11.1235 18.8011 11.1665 18.831C11.2101 18.8603 11.2653 18.875 11.332 18.875ZM12.1124 19V17.9091H12.2743V18.0795H12.2885C12.3113 18.0213 12.348 17.9761 12.3986 17.9439C12.4493 17.9112 12.5101 17.8949 12.5811 17.8949C12.6531 17.8949 12.713 17.9112 12.7608 17.9439C12.8091 17.9761 12.8468 18.0213 12.8738 18.0795H12.8851C12.9131 18.0232 12.955 17.9785 13.0108 17.9453C13.0667 17.9117 13.1337 17.8949 13.2118 17.8949C13.3094 17.8949 13.3891 17.9254 13.4512 17.9865C13.5132 18.0471 13.5442 18.1416 13.5442 18.2699V19H13.3766V18.2699C13.3766 18.1894 13.3546 18.1319 13.3105 18.0973C13.2665 18.0627 13.2147 18.0455 13.155 18.0455C13.0783 18.0455 13.0189 18.0687 12.9767 18.1151C12.9346 18.161 12.9135 18.2192 12.9135 18.2898V19H12.7431V18.2528C12.7431 18.1908 12.723 18.1409 12.6827 18.103C12.6425 18.0646 12.5906 18.0455 12.5272 18.0455C12.4836 18.0455 12.4429 18.0571 12.405 18.0803C12.3676 18.1035 12.3373 18.1357 12.3141 18.1768C12.2914 18.2176 12.28 18.2647 12.28 18.3182V19H12.1124ZM14.3081 19.0227C14.2029 19.0227 14.1123 18.9995 14.036 18.9531C13.9603 18.9062 13.9018 18.8409 13.8606 18.7571C13.8199 18.6728 13.7995 18.5748 13.7995 18.4631C13.7995 18.3513 13.8199 18.2528 13.8606 18.1676C13.9018 18.0819 13.9591 18.0152 14.0325 17.9673C14.1064 17.919 14.1925 17.8949 14.291 17.8949C14.3478 17.8949 14.4039 17.9044 14.4593 17.9233C14.5147 17.9422 14.5652 17.973 14.6106 18.0156C14.6561 18.0578 14.6923 18.1136 14.7193 18.1832C14.7463 18.2528 14.7598 18.3385 14.7598 18.4403V18.5114H13.9189V18.3665H14.5893C14.5893 18.3049 14.577 18.25 14.5524 18.2017C14.5282 18.1534 14.4937 18.1153 14.4487 18.0874C14.4042 18.0594 14.3516 18.0455 14.291 18.0455C14.2243 18.0455 14.1665 18.062 14.1177 18.0952C14.0694 18.1278 14.0323 18.1705 14.0062 18.223C13.9802 18.2756 13.9672 18.3319 13.9672 18.392V18.4886C13.9672 18.571 13.9814 18.6409 14.0098 18.6982C14.0386 18.755 14.0787 18.7983 14.1298 18.8281C14.1809 18.8575 14.2404 18.8722 14.3081 18.8722C14.3521 18.8722 14.3919 18.866 14.4274 18.8537C14.4634 18.8409 14.4944 18.822 14.5204 18.7969C14.5465 18.7713 14.5666 18.7396 14.5808 18.7017L14.7427 18.7472C14.7257 18.8021 14.697 18.8504 14.6568 18.892C14.6165 18.9332 14.5668 18.9654 14.5076 18.9886C14.4484 19.0114 14.3819 19.0227 14.3081 19.0227ZM15.6397 18.2983V18.4545H15.0034V18.2983H15.6397ZM15.9574 19V17.5455H16.1335V18.1932H16.9091V17.5455H17.0852V19H16.9091V18.3494H16.1335V19H15.9574ZM18.1026 18.554V17.9091H18.2702V19H18.1026V18.8153H18.0913C18.0657 18.8707 18.0259 18.9179 17.9719 18.9567C17.918 18.995 17.8498 19.0142 17.7674 19.0142C17.6992 19.0142 17.6386 18.9993 17.5856 18.9695C17.5326 18.9392 17.4909 18.8937 17.4606 18.8331C17.4303 18.772 17.4151 18.6951 17.4151 18.6023V17.9091H17.5827V18.5909C17.5827 18.6705 17.605 18.7339 17.6495 18.7812C17.6945 18.8286 17.7518 18.8523 17.8214 18.8523C17.863 18.8523 17.9054 18.8416 17.9485 18.8203C17.9921 18.799 18.0285 18.7663 18.0579 18.7223C18.0877 18.6783 18.1026 18.6222 18.1026 18.554ZM18.6 19V17.5455H18.7676V18.0824H18.7818C18.7941 18.0634 18.8111 18.0393 18.8329 18.0099C18.8552 17.9801 18.8869 17.9536 18.9281 17.9304C18.9698 17.9067 19.0261 17.8949 19.0971 17.8949C19.189 17.8949 19.2699 17.9179 19.34 17.9638C19.4101 18.0097 19.4648 18.0748 19.5041 18.1591C19.5434 18.2434 19.563 18.3428 19.563 18.4574C19.563 18.5729 19.5434 18.6731 19.5041 18.7578C19.4648 18.8421 19.4103 18.9074 19.3407 18.9538C19.2711 18.9998 19.1909 19.0227 19.1 19.0227C19.0299 19.0227 18.9738 19.0111 18.9316 18.9879C18.8895 18.9643 18.8571 18.9375 18.8343 18.9077C18.8116 18.8774 18.7941 18.8523 18.7818 18.8324H18.7619V19H18.6ZM18.7647 18.4545C18.7647 18.5369 18.7768 18.6096 18.801 18.6726C18.8251 18.7351 18.8604 18.7841 18.9068 18.8196C18.9532 18.8546 19.01 18.8722 19.0772 18.8722C19.1473 18.8722 19.2058 18.8537 19.2527 18.8168C19.3 18.7794 19.3355 18.7292 19.3592 18.6662C19.3833 18.6027 19.3954 18.5322 19.3954 18.4545C19.3954 18.3778 19.3836 18.3087 19.3599 18.2472C19.3367 18.1851 19.3014 18.1361 19.2541 18.1001C19.2072 18.0637 19.1483 18.0455 19.0772 18.0455C19.0091 18.0455 18.9518 18.0627 18.9054 18.0973C18.859 18.1314 18.8239 18.1792 18.8002 18.2408C18.7766 18.3018 18.7647 18.3731 18.7647 18.4545Z" fill="#283A9C"/>
</svg>
